<?xml version="1.0" standalone="no"?>
<!DOCTYPE svg PUBLIC "-//W3C//DTD SVG 20010904//EN"
 "http://www.w3.org/TR/2001/REC-SVG-20010904/DTD/svg10.dtd">
<svg version="1.0" xmlns="http://www.w3.org/2000/svg"
 width="78.000000pt" height="78.000000pt" viewBox="0 0 78.000000 78.000000"
 preserveAspectRatio="xMidYMid meet">
<metadata>
Created by potrace 1.11, written by Peter Selinger 2001-2013
</metadata>
<g transform="translate(0.000000,78.000000) scale(0.100000,-0.100000)"
fill="#000000" stroke="none">
<path d="M314 746 c-33 -33 -36 -40 -29 -74 9 -53 43 -84 94 -86 123 -3 130
174 7 191 -32 4 -41 0 -72 -31z"/>
<path d="M40 565 c-6 -8 -9 -23 -5 -34 9 -30 94 -101 152 -128 36 -17 54 -32
57 -46 11 -52 18 -94 22 -127 2 -19 6 -44 8 -55 3 -11 8 -41 11 -67 12 -77 60
-112 130 -92 34 9 54 49 65 126 6 40 20 96 31 125 12 28 19 65 17 82 -3 29 1
33 49 56 63 28 156 116 151 141 -6 32 -31 37 -78 16 -82 -36 -142 -47 -265
-47 -145 0 -207 11 -283 51 -34 18 -47 18 -62 -1z"/>
</g>
</svg>
